{
	"asset":{
		"generator":"Khronos glTF Blender I/O v3.6.27",
		"version":"2.0"
	},
	"extensionsUsed":[
		"KHR_materials_transmission",
		"KHR_materials_specular",
		"KHR_materials_ior"
	],
	"scene":0,
	"scenes":[
		{
			"name":"Scene",
			"nodes":[
				0,
				1,
				2,
				3,
				4
			]
		}
	],
	"nodes":[
		{
			"mesh":0,
			"name":"Bottom",
			"translation":[
				-1.8000001907348633,
				-0.06999997794628143,
				2.000000238418579
			]
		},
		{
			"mesh":1,
			"name":"Spring",
			"scale":[
				0.08253765106201172,
				0.08253765106201172,
				0.08253765106201172
			],
			"translation":[
				-1.7999999523162842,
				-0.07000000774860382,
				2.000000238418579
			]
		},
		{
			"mesh":2,
			"name":"Stem",
			"translation":[
				-1.799999713897705,
				0.775484025478363,
				1.999999761581421
			]
		},
		{
			"mesh":3,
			"name":"Top",
			"translation":[
				-1.8000001907348633,
				0.020494401454925537,
				2.000000238418579
			]
		},
		{
			"mesh":4,
			"name":"Pins",
			"translation":[
				-1.432504415512085,
				-0.2295028418302536,
				2.264996290206909
			]
		}
	],
	"materials":[
		{
			"doubleSided":true,
			"extensions":{
				"KHR_materials_transmission":{
					"transmissionFactor":1
				},
				"KHR_materials_specular":{
					"specularColorFactor":[
						1,
						1,
						1
					]
				},
				"KHR_materials_ior":{
					"ior":1.4500000476837158
				}
			},
			"name":"BottomPlastic",
			"normalTexture":{
				"index":0
			},
			"pbrMetallicRoughness":{
				"metallicFactor":0,
				"roughnessFactor":0.5
			}
		},
		{
			"doubleSided":true,
			"name":"SpringMetal",
			"pbrMetallicRoughness":{
				"baseColorFactor":[
					0.800000011920929,
					0.800000011920929,
					0.800000011920929,
					1
				],
				"roughnessFactor":0.3968254029750824
			}
		},
		{
			"doubleSided":true,
			"name":"StemPlastic",
			"pbrMetallicRoughness":{
				"baseColorFactor":[
					0.5561912655830383,
					0,
					0.06031860038638115,
					1
				],
				"metallicFactor":0,
				"roughnessFactor":0.30000001192092896
			}
		},
		{
			"doubleSided":true,
			"extensions":{
				"KHR_materials_transmission":{
					"transmissionFactor":1
				},
				"KHR_materials_specular":{
					"specularColorFactor":[
						1,
						1,
						1
					]
				},
				"KHR_materials_ior":{
					"ior":1.4500000476837158
				}
			},
			"name":"TopPlastic",
			"normalTexture":{
				"index":1
			},
			"pbrMetallicRoughness":{
				"metallicFactor":0,
				"roughnessFactor":0.5
			}
		},
		{
			"doubleSided":true,
			"name":"PinMetal",
			"pbrMetallicRoughness":{
				"baseColorFactor":[
					0.800000011920929,
					0.800000011920929,
					0.800000011920929,
					1
				],
				"roughnessFactor":0.3968254029750824
			}
		}
	],
	"meshes":[
		{
			"name":"Mid Bottom PCB LED.001",
			"primitives":[
				{
					"attributes":{
						"POSITION":0,
						"NORMAL":1,
						"TEXCOORD_0":2
					},
					"indices":3,
					"material":0
				}
			]
		},
		{
			"name":"Mid Spring PCB LED.001",
			"primitives":[
				{
					"attributes":{
						"POSITION":4,
						"NORMAL":5,
						"TEXCOORD_0":6
					},
					"indices":7,
					"material":1
				}
			]
		},
		{
			"name":"Mid Switch PCB LED.001",
			"primitives":[
				{
					"attributes":{
						"POSITION":8,
						"NORMAL":9,
						"TEXCOORD_0":10
					},
					"indices":11,
					"material":2
				}
			]
		},
		{
			"name":"Mid Top PCB LED.001",
			"primitives":[
				{
					"attributes":{
						"POSITION":12,
						"NORMAL":13,
						"TEXCOORD_0":14
					},
					"indices":15,
					"material":3
				}
			]
		},
		{
			"name":"Mid Wire PCB LED.001",
			"primitives":[
				{
					"attributes":{
						"POSITION":16,
						"NORMAL":17,
						"TEXCOORD_0":18
					},
					"indices":19,
					"material":4
				}
			]
		}
	],
	"textures":[
		{
			"sampler":0,
			"source":0
		},
		{
			"sampler":0,
			"source":0
		}
	],
	"images":[
		{
			"bufferView":4,
			"mimeType":"image/png",
			"name":"Normal Mid Top PCB LED"
		}
	],
	"accessors":[
		{
			"bufferView":0,
			"componentType":5126,
			"count":2252,
			"max":[
				0.7799999713897705,
				0.44999992847442627,
				0.7800000309944153
			],
			"min":[
				-0.7799999713897705,
				-0.7994946241378784,
				-0.7800000309944153
			],
			"type":"VEC3"
		},
		{
			"bufferView":1,
			"componentType":5126,
			"count":2252,
			"type":"VEC3"
		},
		{
			"bufferView":2,
			"componentType":5126,
			"count":2252,
			"type":"VEC2"
		},
		{
			"bufferView":3,
			"componentType":5123,
			"count":5484,
			"type":"SCALAR"
		},
		{
			"bufferView":5,
			"componentType":5126,
			"count":2120,
			"max":[
				2.08590030670166,
				4.369256019592285,
				2.08590030670166
			],
			"min":[
				-2.08590030670166,
				-4.2666778564453125,
				-2.08590030670166
			],
			"type":"VEC3"
		},
		{
			"bufferView":6,
			"componentType":5126,
			"count":2120,
			"type":"VEC3"
		},
		{
			"bufferView":7,
			"componentType":5126,
			"count":2120,
			"type":"VEC2"
		},
		{
			"bufferView":8,
			"componentType":5123,
			"count":12672,
			"type":"SCALAR"
		},
		{
			"bufferView":9,
			"componentType":5126,
			"count":376,
			"max":[
				0.4449999928474426,
				0.18496982753276825,
				0.2850000262260437
			],
			"min":[
				-0.44499993324279785,
				-0.8550002574920654,
				-0.2850000262260437
			],
			"type":"VEC3"
		},
		{
			"bufferView":10,
			"componentType":5126,
			"count":376,
			"type":"VEC3"
		},
		{
			"bufferView":11,
			"componentType":5126,
			"count":376,
			"type":"VEC2"
		},
		{
			"bufferView":12,
			"componentType":5123,
			"count":804,
			"type":"SCALAR"
		},
		{
			"bufferView":13,
			"componentType":5126,
			"count":966,
			"max":[
				0.7350000739097595,
				0.5199994444847107,
				0.7350000739097595
			],
			"min":[
				-0.7350000739097595,
				-0.4700000286102295,
				-0.7350000739097595
			],
			"type":"VEC3"
		},
		{
			"bufferView":14,
			"componentType":5126,
			"count":966,
			"type":"VEC3"
		},
		{
			"bufferView":15,
			"componentType":5126,
			"count":966,
			"type":"VEC2"
		},
		{
			"bufferView":16,
			"componentType":5123,
			"count":2244,
			"type":"SCALAR"
		},
		{
			"bufferView":17,
			"componentType":5126,
			"count":84,
			"max":[
				0.042500004172325134,
				0,
				0.27099716663360596
			],
			"min":[
				-0.6724920868873596,
				-0.6699987053871155,
				-0.02500000223517418
			],
			"type":"VEC3"
		},
		{
			"bufferView":18,
			"componentType":5126,
			"count":84,
			"type":"VEC3"
		},
		{
			"bufferView":19,
			"componentType":5126,
			"count":84,
			"type":"VEC2"
		},
		{
			"bufferView":20,
			"componentType":5123,
			"count":180,
			"type":"SCALAR"
		}
	],
	"bufferViews":[
		{
			"buffer":0,
			"byteLength":27024,
			"byteOffset":0,
			"target":34962
		},
		{
			"buffer":0,
			"byteLength":27024,
			"byteOffset":27024,
			"target":34962
		},
		{
			"buffer":0,
			"byteLength":18016,
			"byteOffset":54048,
			"target":34962
		},
		{
			"buffer":0,
			"byteLength":10968,
			"byteOffset":72064,
			"target":34963
		},
		{
			"buffer":0,
			"byteLength":737912,
			"byteOffset":83032
		},
		{
			"buffer":0,
			"byteLength":25440,
			"byteOffset":820944,
			"target":34962
		},
		{
			"buffer":0,
			"byteLength":25440,
			"byteOffset":846384,
			"target":34962
		},
		{
			"buffer":0,
			"byteLength":16960,
			"byteOffset":871824,
			"target":34962
		},
		{
			"buffer":0,
			"byteLength":25344,
			"byteOffset":888784,
			"target":34963
		},
		{
			"buffer":0,
			"byteLength":4512,
			"byteOffset":914128,
			"target":34962
		},
		{
			"buffer":0,
			"byteLength":4512,
			"byteOffset":918640,
			"target":34962
		},
		{
			"buffer":0,
			"byteLength":3008,
			"byteOffset":923152,
			"target":34962
		},
		{
			"buffer":0,
			"byteLength":1608,
			"byteOffset":926160,
			"target":34963
		},
		{
			"buffer":0,
			"byteLength":11592,
			"byteOffset":927768,
			"target":34962
		},
		{
			"buffer":0,
			"byteLength":11592,
			"byteOffset":939360,
			"target":34962
		},
		{
			"buffer":0,
			"byteLength":7728,
			"byteOffset":950952,
			"target":34962
		},
		{
			"buffer":0,
			"byteLength":4488,
			"byteOffset":958680,
			"target":34963
		},
		{
			"buffer":0,
			"byteLength":1008,
			"byteOffset":963168,
			"target":34962
		},
		{
			"buffer":0,
			"byteLength":1008,
			"byteOffset":964176,
			"target":34962
		},
		{
			"buffer":0,
			"byteLength":672,
			"byteOffset":965184,
			"target":34962
		},
		{
			"buffer":0,
			"byteLength":360,
			"byteOffset":965856,
			"target":34963
		}
	],
	"samplers":[
		{
			"magFilter":9729,
			"minFilter":9987
		}
	],
	"buffers":[
		{
			"byteLength":966216,
			"uri":"data:application/octet-stream;base64,"
		}
	]
}
